<mxfile host="app.diagrams.net" agent="Mozilla/5.0 (Windows NT 10.0; Win64; x64; rv:138.0) Gecko/20100101 Firefox/138.0" version="27.0.5">
  <diagram name="Page-1" id="I6leB8wDlI7fggWU5JeS">
    <mxGraphModel dx="1188" dy="677" grid="1" gridSize="10" guides="1" tooltips="1" connect="1" arrows="1" fold="1" page="1" pageScale="1" pageWidth="827" pageHeight="1169" math="0" shadow="0">
      <root>
        <mxCell id="0" />
        <mxCell id="1" parent="0" />
        <mxCell id="8WQwYC8tGG0bYnsITIaO-70" value="Start: HydHaltungLeitungType.ToIfcInstance" style="rounded=1;whiteSpace=wrap;html=1;" parent="1" vertex="1">
          <mxGeometry x="270" y="20" width="280" height="40" as="geometry" />
        </mxCell>
        <mxCell id="8WQwYC8tGG0bYnsITIaO-71" value="&lt;div&gt;Find hydraulikObjekt&lt;br&gt;Get objektbezeichnung&lt;/div&gt;" style="whiteSpace=wrap;html=1;" parent="1" vertex="1">
          <mxGeometry x="335" y="100" width="155" height="60" as="geometry" />
        </mxCell>
        <mxCell id="8WQwYC8tGG0bYnsITIaO-72" value="Find root &lt;br&gt;targetPipeSegment = null&lt;div&gt;&lt;br&gt;&lt;/div&gt;" style="whiteSpace=wrap;html=1;" parent="1" vertex="1">
          <mxGeometry x="335" y="190" width="150" height="50" as="geometry" />
        </mxCell>
        <mxCell id="8WQwYC8tGG0bYnsITIaO-73" value="root.IfcObjectsById.TryGetValue(objektbezeichnung, out foundObject)" style="rhombus;whiteSpace=wrap;html=1;" parent="1" vertex="1">
          <mxGeometry x="300" y="280" width="220" height="80" as="geometry" />
        </mxCell>
        <mxCell id="8WQwYC8tGG0bYnsITIaO-75" value="Ja" style="edgeStyle=orthogonalEdgeStyle;rounded=0;orthogonalLoop=1;jettySize=auto;html=1;" parent="1" source="8WQwYC8tGG0bYnsITIaO-73" target="8WQwYC8tGG0bYnsITIaO-76" edge="1">
          <mxGeometry relative="1" as="geometry">
            <mxPoint x="410" y="360" as="sourcePoint" />
          </mxGeometry>
        </mxCell>
        <mxCell id="8WQwYC8tGG0bYnsITIaO-76" value="Log: &#39;Objekt gefunden&#39;" style="whiteSpace=wrap;html=1;" parent="1" vertex="1">
          <mxGeometry x="200" y="390" width="150" height="40" as="geometry" />
        </mxCell>
        <mxCell id="8WQwYC8tGG0bYnsITIaO-77" value="foundObject is ifc.PipeSegment?" style="rhombus;whiteSpace=wrap;html=1;" parent="1" vertex="1">
          <mxGeometry x="160" y="450" width="220" height="80" as="geometry" />
        </mxCell>
        <mxCell id="8WQwYC8tGG0bYnsITIaO-78" value="Ja" style="edgeStyle=orthogonalEdgeStyle;rounded=0;orthogonalLoop=1;jettySize=auto;html=1;" parent="1" source="8WQwYC8tGG0bYnsITIaO-77" target="8WQwYC8tGG0bYnsITIaO-79" edge="1">
          <mxGeometry relative="1" as="geometry">
            <mxPoint x="410" y="540" as="sourcePoint" />
          </mxGeometry>
        </mxCell>
        <mxCell id="8WQwYC8tGG0bYnsITIaO-79" value="targetPipeSegment = pipeSegment&lt;br&gt;Log: &#39;Objekt ist PipeSegment&#39;" style="whiteSpace=wrap;html=1;" parent="1" vertex="1">
          <mxGeometry x="180" y="590" width="150" height="60" as="geometry" />
        </mxCell>
        <mxCell id="8WQwYC8tGG0bYnsITIaO-80" value="Nein" style="edgeStyle=orthogonalEdgeStyle;rounded=0;orthogonalLoop=1;jettySize=auto;html=1;" parent="1" source="8WQwYC8tGG0bYnsITIaO-77" target="8WQwYC8tGG0bYnsITIaO-81" edge="1">
          <mxGeometry relative="1" as="geometry">
            <mxPoint x="520" y="500" as="sourcePoint" />
            <mxPoint x="610" y="500" as="targetPoint" />
            <Array as="points">
              <mxPoint x="570" y="500" />
              <mxPoint x="570" y="600" />
            </Array>
          </mxGeometry>
        </mxCell>
        <mxCell id="8WQwYC8tGG0bYnsITIaO-81" value="Log: &#39;Objekt ist nicht PipeSegment&#39;" style="whiteSpace=wrap;html=1;" parent="1" vertex="1">
          <mxGeometry x="400" y="550" width="150" height="50" as="geometry" />
        </mxCell>
        <mxCell id="8WQwYC8tGG0bYnsITIaO-82" value="Nein" style="edgeStyle=orthogonalEdgeStyle;rounded=0;orthogonalLoop=1;jettySize=auto;html=1;entryX=0;entryY=0.5;entryDx=0;entryDy=0;" parent="1" source="8WQwYC8tGG0bYnsITIaO-73" target="8WQwYC8tGG0bYnsITIaO-83" edge="1">
          <mxGeometry relative="1" as="geometry">
            <mxPoint x="520" y="320" as="sourcePoint" />
            <mxPoint x="610" y="320" as="targetPoint" />
            <Array as="points">
              <mxPoint x="610" y="320" />
              <mxPoint x="610" y="455" />
            </Array>
          </mxGeometry>
        </mxCell>
        <mxCell id="8WQwYC8tGG0bYnsITIaO-83" value="Log: &#39;Kein Objekt gefunden&#39;" style="whiteSpace=wrap;html=1;" parent="1" vertex="1">
          <mxGeometry x="650" y="430" width="150" height="50" as="geometry" />
        </mxCell>
        <mxCell id="8WQwYC8tGG0bYnsITIaO-84" value="Erstelle PropertyValues (propValue1, 2, 3)&lt;br&gt;Erstelle PropertySetProperties Set&lt;br&gt;Erstelle PropertySet (myPropertySet)" style="whiteSpace=wrap;html=1;" parent="1" vertex="1">
          <mxGeometry x="220" y="740" width="150" height="80" as="geometry" />
        </mxCell>
        <mxCell id="8WQwYC8tGG0bYnsITIaO-85" value="targetPipeSegment ist nicht null?" style="rhombus;whiteSpace=wrap;html=1;" parent="1" vertex="1">
          <mxGeometry x="185" y="885" width="220" height="80" as="geometry" />
        </mxCell>
        <mxCell id="8WQwYC8tGG0bYnsITIaO-86" value="Ja" style="edgeStyle=orthogonalEdgeStyle;rounded=0;orthogonalLoop=1;jettySize=auto;html=1;" parent="1" source="8WQwYC8tGG0bYnsITIaO-85" target="8WQwYC8tGG0bYnsITIaO-87" edge="1">
          <mxGeometry relative="1" as="geometry">
            <mxPoint x="395" y="920" as="sourcePoint" />
          </mxGeometry>
        </mxCell>
        <mxCell id="8WQwYC8tGG0bYnsITIaO-87" value="Erstelle objectsToDefine mit targetPipeSegment&lt;br&gt;Erstelle IfcRelDefinesByProperties&lt;br&gt;Log: &#39;PropertySet zugewiesen&#39;" style="whiteSpace=wrap;html=1;" parent="1" vertex="1">
          <mxGeometry x="320" y="950" width="150" height="80" as="geometry" />
        </mxCell>
        <mxCell id="8WQwYC8tGG0bYnsITIaO-88" value="Nein" style="edgeStyle=orthogonalEdgeStyle;rounded=0;orthogonalLoop=1;jettySize=auto;html=1;" parent="1" source="8WQwYC8tGG0bYnsITIaO-85" target="8WQwYC8tGG0bYnsITIaO-89" edge="1">
          <mxGeometry relative="1" as="geometry">
            <mxPoint x="505" y="880" as="sourcePoint" />
            <mxPoint x="595" y="880" as="targetPoint" />
            <Array as="points">
              <mxPoint x="595" y="880" />
              <mxPoint x="595" y="990" />
            </Array>
          </mxGeometry>
        </mxCell>
        <mxCell id="8WQwYC8tGG0bYnsITIaO-89" value="Überspringe PropertySet-Zuweisung" style="whiteSpace=wrap;html=1;" parent="1" vertex="1">
          <mxGeometry x="520" y="965" width="150" height="50" as="geometry" />
        </mxCell>
        <mxCell id="8WQwYC8tGG0bYnsITIaO-90" value="Ende: HydHaltungLeitungType.ToIfcInstance" style="rounded=1;whiteSpace=wrap;html=1;" parent="1" vertex="1">
          <mxGeometry x="315" y="1080" width="160" height="40" as="geometry" />
        </mxCell>
        <mxCell id="8WQwYC8tGG0bYnsITIaO-91" value="" style="edgeStyle=orthogonalEdgeStyle;rounded=0;orthogonalLoop=1;jettySize=auto;html=1;" parent="1" source="8WQwYC8tGG0bYnsITIaO-70" target="8WQwYC8tGG0bYnsITIaO-71" edge="1">
          <mxGeometry relative="1" as="geometry" />
        </mxCell>
        <mxCell id="8WQwYC8tGG0bYnsITIaO-92" value="" style="edgeStyle=orthogonalEdgeStyle;rounded=0;orthogonalLoop=1;jettySize=auto;html=1;" parent="1" source="8WQwYC8tGG0bYnsITIaO-71" target="8WQwYC8tGG0bYnsITIaO-72" edge="1">
          <mxGeometry relative="1" as="geometry" />
        </mxCell>
        <mxCell id="8WQwYC8tGG0bYnsITIaO-93" value="" style="edgeStyle=orthogonalEdgeStyle;rounded=0;orthogonalLoop=1;jettySize=auto;html=1;" parent="1" source="8WQwYC8tGG0bYnsITIaO-72" target="8WQwYC8tGG0bYnsITIaO-73" edge="1">
          <mxGeometry relative="1" as="geometry" />
        </mxCell>
        <mxCell id="8WQwYC8tGG0bYnsITIaO-94" value="" style="edgeStyle=orthogonalEdgeStyle;rounded=0;orthogonalLoop=1;jettySize=auto;html=1;" parent="1" source="8WQwYC8tGG0bYnsITIaO-76" target="8WQwYC8tGG0bYnsITIaO-77" edge="1">
          <mxGeometry relative="1" as="geometry" />
        </mxCell>
        <mxCell id="8WQwYC8tGG0bYnsITIaO-95" value="" style="edgeStyle=orthogonalEdgeStyle;rounded=0;orthogonalLoop=1;jettySize=auto;html=1;" parent="1" source="8WQwYC8tGG0bYnsITIaO-79" target="8WQwYC8tGG0bYnsITIaO-84" edge="1">
          <mxGeometry relative="1" as="geometry" />
        </mxCell>
        <mxCell id="8WQwYC8tGG0bYnsITIaO-98" value="" style="edgeStyle=orthogonalEdgeStyle;rounded=0;orthogonalLoop=1;jettySize=auto;html=1;" parent="1" source="8WQwYC8tGG0bYnsITIaO-84" target="8WQwYC8tGG0bYnsITIaO-85" edge="1">
          <mxGeometry relative="1" as="geometry" />
        </mxCell>
        <mxCell id="8WQwYC8tGG0bYnsITIaO-99" value="" style="edgeStyle=orthogonalEdgeStyle;rounded=0;orthogonalLoop=1;jettySize=auto;html=1;" parent="1" source="8WQwYC8tGG0bYnsITIaO-87" target="8WQwYC8tGG0bYnsITIaO-90" edge="1">
          <mxGeometry relative="1" as="geometry" />
        </mxCell>
        <mxCell id="8WQwYC8tGG0bYnsITIaO-100" value="" style="edgeStyle=orthogonalEdgeStyle;rounded=0;orthogonalLoop=1;jettySize=auto;html=1;" parent="1" source="8WQwYC8tGG0bYnsITIaO-89" target="8WQwYC8tGG0bYnsITIaO-90" edge="1">
          <mxGeometry relative="1" as="geometry">
            <Array as="points">
              <mxPoint x="595" y="1050" />
              <mxPoint x="395" y="1050" />
            </Array>
          </mxGeometry>
        </mxCell>
        <mxCell id="8WQwYC8tGG0bYnsITIaO-101" value="&lt;br&gt;&lt;br&gt;hydraulikObjekt.Objektbezeichung&lt;br&gt;-&amp;gt; key für Ifc Objekte" style="strokeWidth=2;html=1;shape=mxgraph.flowchart.annotation_1;align=left;pointerEvents=1;" parent="1" vertex="1">
          <mxGeometry x="620" y="97.5" width="30" height="65" as="geometry" />
        </mxCell>
        <mxCell id="8WQwYC8tGG0bYnsITIaO-103" value="root.IFCObjektsById&lt;br&gt;-&amp;gt; IFC Objekt Kontainer&lt;br&gt;&lt;br&gt;tragetPipeSegment &lt;br&gt;-&amp;gt; wenn Prüfung durchlaufen &lt;br&gt;zuweisung des foundObjekt" style="strokeWidth=2;html=1;shape=mxgraph.flowchart.annotation_1;align=left;pointerEvents=1;" parent="1" vertex="1">
          <mxGeometry x="620" y="190" width="50" height="100" as="geometry" />
        </mxCell>
        <mxCell id="8WQwYC8tGG0bYnsITIaO-104" value="" style="endArrow=none;dashed=1;html=1;dashPattern=1 3;strokeWidth=2;rounded=0;entryX=-0.047;entryY=0.387;entryDx=0;entryDy=0;entryPerimeter=0;exitX=1;exitY=0.5;exitDx=0;exitDy=0;" parent="1" source="8WQwYC8tGG0bYnsITIaO-72" target="8WQwYC8tGG0bYnsITIaO-103" edge="1">
          <mxGeometry width="50" height="50" relative="1" as="geometry">
            <mxPoint x="510" y="350" as="sourcePoint" />
            <mxPoint x="560" y="300" as="targetPoint" />
          </mxGeometry>
        </mxCell>
        <mxCell id="8WQwYC8tGG0bYnsITIaO-105" value="" style="endArrow=none;dashed=1;html=1;dashPattern=1 3;strokeWidth=2;rounded=0;exitX=1;exitY=0.5;exitDx=0;exitDy=0;entryX=0;entryY=0.5;entryDx=0;entryDy=0;entryPerimeter=0;" parent="1" source="8WQwYC8tGG0bYnsITIaO-71" target="8WQwYC8tGG0bYnsITIaO-101" edge="1">
          <mxGeometry width="50" height="50" relative="1" as="geometry">
            <mxPoint x="510" y="130" as="sourcePoint" />
            <mxPoint x="600" y="150" as="targetPoint" />
          </mxGeometry>
        </mxCell>
        <mxCell id="3h3WluHekqM8FcVTlRh4-1" style="edgeStyle=orthogonalEdgeStyle;rounded=0;orthogonalLoop=1;jettySize=auto;html=1;entryX=0.863;entryY=-0.004;entryDx=0;entryDy=0;entryPerimeter=0;" edge="1" parent="1" source="8WQwYC8tGG0bYnsITIaO-81" target="8WQwYC8tGG0bYnsITIaO-84">
          <mxGeometry relative="1" as="geometry" />
        </mxCell>
        <mxCell id="3h3WluHekqM8FcVTlRh4-2" style="edgeStyle=orthogonalEdgeStyle;rounded=0;orthogonalLoop=1;jettySize=auto;html=1;entryX=1.002;entryY=0.59;entryDx=0;entryDy=0;entryPerimeter=0;" edge="1" parent="1" source="8WQwYC8tGG0bYnsITIaO-83" target="8WQwYC8tGG0bYnsITIaO-84">
          <mxGeometry relative="1" as="geometry">
            <Array as="points">
              <mxPoint x="700" y="787" />
            </Array>
          </mxGeometry>
        </mxCell>
      </root>
    </mxGraphModel>
  </diagram>
</mxfile>
